<?xml version="1.0" standalone="no"?><!DOCTYPE svg PUBLIC "-//W3C//DTD SVG 1.1//EN" "http://www.w3.org/Graphics/SVG/1.1/DTD/svg11.dtd"><svg t="1505107342645" class="icon" style="" viewBox="0 0 1024 1024" version="1.1" xmlns="http://www.w3.org/2000/svg" p-id="3342" xmlns:xlink="http://www.w3.org/1999/xlink" width="16" height="16"><defs><style type="text/css"></style></defs><path d="M271.872 727.552c-21.504 0-38.912 17.408-38.912 38.912 0 21.504 17.408 38.912 38.912 38.912H414.72c-2.56-16.896-4.096-34.304-4.096-52.224 0-8.704 0.512-17.408 1.024-25.6H271.872z m258.56-234.496H271.872c-21.504 0-38.912 17.408-38.912 38.912 0 21.504 17.408 38.912 38.912 38.912h190.976c18.944-28.672 41.472-55.296 67.584-77.824zM766.464 117.76h38.912c43.008 0 77.824 34.816 77.824 78.336v243.712c28.16 11.776 54.272 27.648 77.824 46.592V196.096c0-86.016-69.632-156.16-155.648-156.16h-38.912c-21.504 0-38.912 17.408-38.912 38.912 0 21.504 17.408 38.912 38.912 38.912z m-385.536 0h194.048c32.256 0 58.368-26.112 58.368-58.368 0-32.256-26.112-58.368-58.368-58.368H380.928C348.672 1.024 322.56 27.136 322.56 59.392 322.56 91.648 348.672 117.76 380.928 117.76zM455.68 923.136H155.648c-43.008 0-77.824-34.816-77.824-78.336V196.096C77.824 153.088 112.64 117.76 155.648 117.76H194.56c21.504 0 38.912-17.408 38.912-38.912 0-21.504-17.408-38.912-38.912-38.912h-38.912C69.632 39.936 0 109.568 0 196.096v649.216c0 86.528 69.632 156.16 155.648 156.16H517.12c-24.064-23.04-44.544-49.152-61.44-78.336zM271.872 337.92h416.768c21.504 0 38.912-17.408 38.912-38.912 0-21.504-17.408-38.912-38.912-38.912H271.872c-21.504 0-38.912 17.408-38.912 38.912 0 20.992 17.408 38.912 38.912 38.912z m478.208 144.896c-148.48 0-268.8 120.832-268.8 270.336 0 149.504 120.32 270.336 268.8 270.336s268.8-120.832 268.8-270.336c0-148.992-120.32-270.336-268.8-270.336z m176.128 253.44c0 7.68-6.656 13.824-14.336 13.824h-139.264V808.96h139.264c7.68 0 14.336 6.144 14.336 13.824v25.6c0 7.68-6.656 13.824-14.336 13.824h-140.288v53.76c0 7.68-6.656 13.824-14.336 13.824h-26.112c-7.68 0-14.336-6.144-14.336-13.824v-53.76h-129.024c-7.68 0-14.336-6.144-14.336-13.824v-25.6c0-7.68 6.656-13.824 14.336-13.824H716.8v-58.88h-129.024c-7.68 0-14.336-6.144-14.336-13.824v-25.6c0-7.68 6.656-13.824 14.336-13.824h87.04l-48.128-77.824c-4.608-8.704-5.12-25.088 9.216-33.28 18.432-10.752 35.328 2.56 35.328 2.56l71.68 109.056h4.096l68.096-109.056c7.168-11.776 24.576-15.872 40.448-5.12 18.944 14.336 7.68 32.256 7.68 32.256l-49.152 81.92h98.816c7.68 0 14.336 6.144 14.336 13.824v25.088h-1.024z" fill="#ffffff" p-id="3343"></path></svg>