<?xml version="1.0" standalone="no"?><!DOCTYPE svg PUBLIC "-//W3C//DTD SVG 1.1//EN" "http://www.w3.org/Graphics/SVG/1.1/DTD/svg11.dtd"><svg class="icon" width="16px" height="16.00px" viewBox="0 0 1024 1024" version="1.1" xmlns="http://www.w3.org/2000/svg"><path fill="#ffffff" d="M627.56 716.288l86.56 86.592c-56.032 20.128-126.528 34.88-215.2 34.88-229.664 0-404.608-193.536-404.608-193.536l-77.76-78.112s-30.432-45.696-8.192-91.36c9.376-19.136 25.408-31.68 53.472-60.928 23.68-24.64 86.816-86.464 139.296-123.968l106.816 106.816A233.696 233.696 0 0 0 277.544 512a234.72 234.72 0 0 0 234.688 234.688 233.184 233.184 0 0 0 115.264-30.4z m256.064-13.12c-15.68 12.288-39.488 31.872-72.192 52.256l122.656 122.688a39.36 39.36 0 1 1-55.68 55.68L90.472 145.824a39.36 39.36 0 1 1 55.68-55.68l145.92 145.92c37.728-18.464 89.312-38.624 149.472-46.08 116.736-14.464 273.76 7.392 449.888 159.776 123.232 115.168 123.84 128.48 123.84 128.48s20.32 41.824 0 85.152c-28.896 38.624-85.536 103.872-131.616 139.776z m-180.704-56.16c27.2-38.272 44-84.448 44-135.008a234.688 234.688 0 0 0-234.656-234.688c-50.56 0-96.736 16.768-135.008 44l68.416 68.448a135.936 135.936 0 0 1 66.592-17.536A139.776 139.776 0 0 1 652.008 512c0 24.256-6.496 46.784-17.472 66.56l68.416 68.448z m-147.392-2.752l-175.552-175.584A139.2 139.2 0 0 0 372.456 512a139.744 139.744 0 0 0 139.808 139.776c15.168 0 29.536-3.04 43.232-7.52z" /></svg>