<?xml version="1.0" standalone="no"?><!DOCTYPE svg PUBLIC "-//W3C//DTD SVG 1.1//EN" "http://www.w3.org/Graphics/SVG/1.1/DTD/svg11.dtd"><svg t="1514856198301" class="icon" style="" viewBox="0 0 1024 1024" version="1.1" xmlns="http://www.w3.org/2000/svg" p-id="1019" xmlns:xlink="http://www.w3.org/1999/xlink" width="50" height="50"><defs><style type="text/css"></style></defs><path d="M501.4784 673.2032c0-155.008 125.696-280.6016 280.6272-280.6016 16.3584 0 32.2816 1.6896 47.8208 4.3776V165.9392a98.8928 98.8928 0 0 0-98.8928-98.944H124.5184A98.9184 98.9184 0 0 0 25.6 165.9392v692.096a98.9184 98.9184 0 0 0 98.9184 98.944h606.4896c9.6 0 18.7136-1.792 27.4944-4.3776-143.8464-11.9552-257.024-132.352-257.024-279.3984zM179.2768 231.5776h423.1424a40.2944 40.2944 0 0 1 0 80.5888H179.2768a40.32 40.32 0 1 1 0-80.5888z m154.4704 481.92H179.2768a40.32 40.32 0 1 1 0-80.5888h154.4704a40.32 40.32 0 0 1 0 80.5888zM414.336 512H179.2768a40.32 40.32 0 1 1 0-80.5888h235.0592a40.32 40.32 0 1 1 0 80.5888z" p-id="1020" fill="#04BE02"></path><path d="M782.1056 456.9088a216.32 216.32 0 1 0 0 432.64 216.32 216.32 0 0 0 0-432.64z m69.2224 322.816l-69.2224-36.3776-69.2224 36.3776 13.2352-77.0816-56.0128-54.5792 77.3632-11.264 34.6368-70.1184 34.5856 70.1184 77.3888 11.264-55.9872 54.5792 13.2352 77.0816z" p-id="1021" fill="#04BE02"></path></svg>