<?xml version="1.0" standalone="no"?><!DOCTYPE svg PUBLIC "-//W3C//DTD SVG 1.1//EN" "http://www.w3.org/Graphics/SVG/1.1/DTD/svg11.dtd"><svg t="1505706250517" class="icon" style="" viewBox="0 0 1024 1024" version="1.1" xmlns="http://www.w3.org/2000/svg" p-id="4742" xmlns:xlink="http://www.w3.org/1999/xlink" width="16" height="16"><defs><style type="text/css"></style></defs><path d="M807.84 1024H248.16c-110.384 0-200.192-84.128-200.192-187.632V187.632C47.968 84.256 137.776 0 248.16 0h559.68c110.432 0 200.192 84.256 200.192 187.632v648.752c0 103.488-89.744 187.616-200.192 187.616zM248.16 71.632c-70.88 0-128.496 52-128.496 116v648.752c0 64 57.632 116 128.496 116h559.68c70.88 0 128.624-52 128.624-116V187.632c0-64-57.68-116-128.624-116H248.16z" p-id="4743" fill="#04BE02"></path><path d="M213.968 476.256H285.6v71.568h-71.632v-71.568z m173.056 0h433.568v71.568H387.024v-71.568zM213.968 312.752h606.624v71.632H213.968v-71.632z m173.056 326.992h433.568v71.504H387.024v-71.504z m-173.056 0H285.6v71.504h-71.632v-71.504z" p-id="4744" fill="#04BE02"></path></svg>