<?xml version="1.0" standalone="no"?><!DOCTYPE svg PUBLIC "-//W3C//DTD SVG 1.1//EN" "http://www.w3.org/Graphics/SVG/1.1/DTD/svg11.dtd"><svg t="1505706128734" class="icon" style="" viewBox="0 0 1024 1024" version="1.1" xmlns="http://www.w3.org/2000/svg" p-id="3193" xmlns:xlink="http://www.w3.org/1999/xlink" width="16" height="16"><defs><style type="text/css"></style></defs><path d="M86.4 963.2c-14.4 0-25.6-11.2-25.6-25.6V376c0-14.4 11.2-25.6 25.6-25.6s25.6 11.2 25.6 25.6v561.6c0 14.4-11.2 25.6-25.6 25.6z" fill="#04BE02" p-id="3194"></path><path d="M86.4 963.2c-14.4 0-25.6-11.2-25.6-25.6S72 912 86.4 912h851.2c14.4 0 25.6 11.2 25.6 25.6s-11.2 25.6-25.6 25.6H86.4z" fill="#04BE02" p-id="3195"></path><path d="M937.6 963.2c-14.4 0-25.6-11.2-25.6-25.6V500.8c0-14.4 11.2-25.6 25.6-25.6s25.6 11.2 25.6 25.6v438.4c0 14.4-11.2 24-25.6 24zM86.4 403.2c-14.4 0-25.6-11.2-25.6-25.6S72 352 86.4 352H512c14.4 0 25.6 11.2 25.6 25.6s-11.2 25.6-25.6 25.6H86.4z" fill="#04BE02" p-id="3196"></path><path d="M640 523.2c-6.4 0-12.8-3.2-17.6-8l-124.8-118.4c-9.6-9.6-11.2-25.6 0-36.8 4.8-4.8 11.2-8 17.6-8 6.4 0 12.8 3.2 17.6 8l124.8 118.4c9.6 9.6 11.2 25.6 0 36.8-4.8 4.8-11.2 8-17.6 8z" fill="#04BE02" p-id="3197"></path><path d="M643.2 524.8c-14.4 0-25.6-11.2-25.6-25.6 0-14.4 11.2-25.6 25.6-25.6l294.4 1.6c14.4 0 25.6 11.2 25.6 25.6 0 14.4-11.2 25.6-25.6 25.6l-294.4-1.6zM113.6 320c-14.4 0-25.6-11.2-25.6-25.6v-208c0-14.4 11.2-25.6 25.6-25.6s25.6 11.2 25.6 25.6v208c0 14.4-11.2 25.6-25.6 25.6z" fill="#04BE02" p-id="3198"></path><path d="M120 110.4c-14.4 0-25.6-11.2-25.6-25.6s11.2-25.6 25.6-25.6h555.2c14.4 0 25.6 11.2 25.6 25.6s-11.2 25.6-25.6 25.6H120z" fill="#04BE02" p-id="3199"></path><path d="M675.2 448c-14.4 0-25.6-11.2-25.6-25.6v-336c0-14.4 11.2-25.6 25.6-25.6s25.6 11.2 25.6 25.6v336c0 14.4-11.2 25.6-25.6 25.6zM739.2 172.8c-14.4 0-25.6-11.2-25.6-25.6s11.2-25.6 25.6-25.6h54.4c14.4 0 25.6 11.2 25.6 25.6s-11.2 25.6-25.6 25.6h-54.4z" fill="#04BE02" p-id="3200"></path><path d="M793.6 448c-14.4 0-25.6-11.2-25.6-25.6V147.2c0-14.4 11.2-25.6 25.6-25.6s25.6 11.2 25.6 25.6v275.2c0 14.4-11.2 25.6-25.6 25.6zM857.6 214.4c-14.4 0-25.6-11.2-25.6-25.6s11.2-25.6 25.6-25.6h49.6c14.4 0 25.6 11.2 25.6 25.6s-11.2 25.6-25.6 25.6h-49.6z" fill="#04BE02" p-id="3201"></path><path d="M907.2 448c-14.4 0-25.6-11.2-25.6-25.6V188.8c0-14.4 11.2-25.6 25.6-25.6s25.6 11.2 25.6 25.6v232c0 16-11.2 27.2-25.6 27.2zM187.2 196.8c-14.4 0-25.6-11.2-25.6-25.6s11.2-25.6 25.6-25.6h412.8c14.4 0 25.6 11.2 25.6 25.6s-11.2 25.6-25.6 25.6H187.2zM187.2 281.6c-14.4 0-25.6-11.2-25.6-25.6s11.2-25.6 25.6-25.6h412.8c14.4 0 25.6 11.2 25.6 25.6s-11.2 25.6-25.6 25.6H187.2zM396.8 771.2c-88 0-158.4-70.4-158.4-158.4s70.4-158.4 158.4-158.4 158.4 70.4 158.4 158.4-70.4 158.4-158.4 158.4z m0-264a107.2 107.2 0 1 0 0 214.4 107.2 107.2 0 0 0 0-214.4z" fill="#04BE02" p-id="3202"></path><path d="M604.8 870.4c-8 0-16-3.2-19.2-9.6-48-56-116.8-88-190.4-88-73.6 0-142.4 32-190.4 88-4.8 4.8-12.8 8-20.8 8-4.8 0-12.8-1.6-16-6.4-11.2-11.2-11.2-25.6-1.6-35.2 57.6-67.2 140.8-105.6 228.8-105.6s172.8 38.4 230.4 105.6c4.8 4.8 6.4 9.6 6.4 16s-3.2 14.4-8 19.2c-8 4.8-12.8 8-19.2 8z" fill="#04BE02" p-id="3203"></path></svg>