<?xml version="1.0" standalone="no"?><!DOCTYPE svg PUBLIC "-//W3C//DTD SVG 1.1//EN" "http://www.w3.org/Graphics/SVG/1.1/DTD/svg11.dtd"><svg t="1505112588041" class="icon" style="" viewBox="0 0 1024 1024" version="1.1" xmlns="http://www.w3.org/2000/svg" p-id="9591" xmlns:xlink="http://www.w3.org/1999/xlink" width="32" height="32"><defs><style type="text/css"></style></defs><path d="M662.528 0C497.152 0.512 363.52 134.656 364.032 300.032c0.512 165.376 134.656 299.008 300.032 298.496 164.864-0.512 298.496-134.144 298.496-299.008C962.048 133.632 827.904 0 662.528 0z m146.944 275.968h-118.784v56.32h118.784v56.32h-118.784v107.008h-56.32v-107.52h-118.784v-56.32h118.784v-56.32h-118.784v-56.32h78.848l-76.288-76.8L558.08 102.4l104.448 104.96L766.976 102.4l39.936 39.936-76.288 76.8h78.848v56.832zM312.32 972.288H137.728V573.44h162.304c111.616 25.6 221.184 58.368 328.704 98.816l4.608 1.536c23.04 7.168 41.984 18.432 41.984 77.824s-47.616 80.384-91.648 80.384h-5.632l-188.416-23.552-4.096 40.96 189.44 23.552h7.168c9.728 0 95.232-2.048 118.784-82.432 7.68-23.552 7.68-49.152-1.024-72.192l-4.096-10.24 9.728-5.12c39.936-20.48 79.36-41.472 118.784-63.488 16.384-9.216 35.328-13.824 54.272-13.824 57.344 0 109.056 35.84 128.512 89.6 6.656 22.528 13.312 79.36-62.464 126.464-112.64 73.216-294.4 171.52-302.08 175.616l-11.264 6.144-318.976-51.2z m-299.52 1.024V573.44h74.752v399.872H12.8z" p-id="9592" fill="#8a8a8a"></path></svg>