<?xml version="1.0" standalone="no"?><!DOCTYPE svg PUBLIC "-//W3C//DTD SVG 1.1//EN" "http://www.w3.org/Graphics/SVG/1.1/DTD/svg11.dtd"><svg t="1499839309943" class="icon" style="" viewBox="0 0 1024 1024" version="1.1" xmlns="http://www.w3.org/2000/svg" p-id="1198" xmlns:xlink="http://www.w3.org/1999/xlink" width="200" height="200"><defs><style type="text/css"></style></defs><path d="M916.333862 214.894302 107.666138 214.894302c-23.091928 0-41.827641-18.721387-41.827641-41.827641s18.735713-41.827641 41.827641-41.827641l808.667723 0c23.091928 0 41.827641 18.721387 41.827641 41.827641S939.425789 214.894302 916.333862 214.894302z" p-id="1199"></path><path d="M916.333862 524.564154 107.666138 524.564154c-23.091928 0-41.827641-18.337647-41.827641-41.443901s18.735713-41.443901 41.827641-41.443901l808.667723 0c23.091928 0 41.827641 18.337647 41.827641 41.443901S939.425789 524.564154 916.333862 524.564154z" p-id="1200"></path><path d="M916.333862 856.251462 107.666138 856.251462c-23.091928 0-41.827641-18.721387-41.827641-41.827641s18.735713-41.827641 41.827641-41.827641l808.667723 0c23.091928 0 41.827641 18.721387 41.827641 41.827641S939.425789 856.251462 916.333862 856.251462z" p-id="1201"></path></svg>