<?xml version="1.0" standalone="no"?><!DOCTYPE svg PUBLIC "-//W3C//DTD SVG 1.1//EN" "http://www.w3.org/Graphics/SVG/1.1/DTD/svg11.dtd"><svg t="1505271416291" class="icon" style="" viewBox="0 0 1024 1024" version="1.1" xmlns="http://www.w3.org/2000/svg" p-id="5627" xmlns:xlink="http://www.w3.org/1999/xlink" width="16" height="16"><defs><style type="text/css"></style></defs><path d="M35.847 611.324c-8.943 0-17.627-4.618-22.454-12.901C6.22 586.037 10.416 570.177 22.78 563L981.595 5.922c12.387-7.237 28.227-2.98 35.423 9.375 7.184 12.387 2.986 28.246-9.375 35.434L48.826 607.808c-3.714 2.213-8.191 3.519-12.97 3.519h-0.002z m0 0z" fill="#04BE02" p-id="5628"></path><path d="M869.188 1013.063c-1.117 0-2.258-0.079-3.399-0.198-14.177-1.876-24.187-14.879-22.336-29.077L968.948 24.971C970.79 10.766 983.857 0.792 998.023 2.635c14.175 1.87 24.182 14.873 22.339 29.075L894.863 990.53c-1.743 13.028-12.881 22.538-25.676 22.538zM322.475 659.819c-1.423 0-2.881-0.108-4.348-0.368L31.488 610.96c-14.098-2.378-23.609-15.75-21.225-29.873 2.389-14.098 15.681-23.713 29.884-21.226l286.635 48.481c14.092 2.393 23.606 15.76 21.225 29.881-2.151 12.65-13.113 21.594-25.524 21.594z m0 0z" fill="#04BE02" p-id="5629"></path><path d="M869.132 1013.063h-0.005a25.825 25.825 0 0 1-16.135-5.63L522.97 745.742c-11.219-8.887-13.087-25.185-4.217-36.407 8.926-11.219 25.239-13.062 36.407-4.227l330.067 261.737c11.222 8.891 13.084 25.193 4.226 36.406-5.108 6.454-12.681 9.819-20.319 9.819z m-429.983-18.24h-0.035c-14.299 0-25.887-14.948-25.887-29.251l0.421-311.74c0-14.314 11.607-21.827 25.917-21.827h0.021c14.308 0 25.889 5.934 25.889 20.242l-0.411 316.255c-0.029 14.324-11.607 26.326-25.909 26.326z m0 0z" fill="#04BE02" p-id="5630"></path><path d="M439.532 672.431c-6.175 0-12.368-2.172-17.29-6.635-10.653-9.567-11.531-25.938-1.972-36.585L975.376 11.029c9.584-10.652 25.966-11.504 36.586-1.974 10.654 9.57 11.537 25.945 1.974 36.591L458.835 663.828c-4.766 5.287-11.645 8.599-19.295 8.599h-0.017z m0 0z" fill="#04BE02" p-id="5631"></path></svg>