<?xml version="1.0" standalone="no"?><!DOCTYPE svg PUBLIC "-//W3C//DTD SVG 1.1//EN" "http://www.w3.org/Graphics/SVG/1.1/DTD/svg11.dtd"><svg t="1502958646891" class="icon" style="" viewBox="0 0 1024 1024" version="1.1" xmlns="http://www.w3.org/2000/svg" p-id="2378" xmlns:xlink="http://www.w3.org/1999/xlink" width="64" height="64"><defs><style type="text/css"></style></defs><path d="M779.4 922.9H237.6c-62.4 0-113.2-50.8-113.2-113.2V230c0-62.4 50.8-113.2 113.2-113.2h541.8c62.4 0 113.2 50.8 113.2 113.2v579.7c0 62.4-50.8 113.2-113.2 113.2zM237.6 155c-41.4 0-75.1 33.7-75.1 75.1v579.7c0 41.4 33.7 75.1 75.1 75.1h541.8c41.4 0 75.1-33.7 75.1-75.1V230c0-41.4-33.7-75.1-75.1-75.1H237.6z" p-id="2379"></path><path d="M408.1 483.1h-91.5c-37.1 0-67.3-30.2-67.3-67.3V314.6c0-37.1 30.2-67.3 67.3-67.3h91.5c37.1 0 67.3 30.2 67.3 67.3v101.3c0 37-30.2 67.2-67.3 67.2z m-91.5-197.7c-16.1 0-29.1 13.1-29.1 29.1v101.3c0 16.1 13.1 29.1 29.1 29.1h91.5c16.1 0 29.1-13.1 29.1-29.1V314.6c0-16.1-13.1-29.1-29.1-29.1h-91.5zM748.6 303.9h-181c-10.5 0-19.1-8.5-19.1-19.1 0-10.5 8.5-19.1 19.1-19.1h181c10.5 0 19.1 8.5 19.1 19.1 0 10.6-8.6 19.1-19.1 19.1zM748.6 464.6h-181c-10.5 0-19.1-8.5-19.1-19.1 0-10.5 8.5-19.1 19.1-19.1h181c10.5 0 19.1 8.5 19.1 19.1 0 10.6-8.6 19.1-19.1 19.1z" p-id="2380"></path><path d="M748.6 631.9H268.4c-10.5 0-19.1-8.5-19.1-19.1 0-10.5 8.5-19.1 19.1-19.1h480.2c10.5 0 19.1 8.5 19.1 19.1 0 10.6-8.6 19.1-19.1 19.1z" p-id="2381"></path><path d="M748.6 790.2H268.4c-10.5 0-19.1-8.5-19.1-19.1s8.5-19.1 19.1-19.1h480.2c10.5 0 19.1 8.5 19.1 19.1s-8.6 19.1-19.1 19.1z" p-id="2382"></path></svg>