<?xml version="1.0" standalone="no"?><!DOCTYPE svg PUBLIC "-//W3C//DTD SVG 1.1//EN" "http://www.w3.org/Graphics/SVG/1.1/DTD/svg11.dtd"><svg t="1505526328714" class="icon" style="" viewBox="0 0 1024 1024" version="1.1" xmlns="http://www.w3.org/2000/svg" p-id="4342" xmlns:xlink="http://www.w3.org/1999/xlink" width="16" height="16"><defs><style type="text/css"></style></defs><path d="M75.264 989.184 75.264 989.184c-10.496 0-19.712-4.608-25.344-12.288-6.4-8.704-7.424-20.224-3.584-32.256l95.232-283.392c0.768-2.56 2.304-4.864 4.352-6.912L691.712 106.752c54.784-54.784 108.288-66.304 143.36-66.304 64.256 0 121.856 38.656 146.688 98.304 27.648 66.816 7.68 143.36-53.504 204.544L381.44 889.6c-2.048 2.048-4.352 3.584-7.168 4.352L88.32 986.88C83.712 988.416 79.36 989.184 75.264 989.184zM174.08 676.608 81.664 951.296l277.248-90.112 543.488-543.488c51.2-51.2 67.84-111.616 45.568-165.376-19.2-46.336-63.744-76.032-113.408-76.032-40.448 0-81.408 19.2-117.76 55.808L174.08 676.608z" p-id="4343"></path><path d="M183.193037 642.00023l210.161434 210.161434-25.342464 25.342464-210.161434-210.161434 25.342464-25.342464Z" p-id="4344"></path><path d="M716.947507 106.534349l211.066522 211.066522-25.342464 25.342464-211.066522-211.066522 25.342464-25.342464Z" p-id="4345"></path><path d="M134.851866 761.864218l137.754394 137.754394-25.342464 25.342464-137.754394-137.754394 25.342464-25.342464Z" p-id="4346"></path><path d="M766.38441 181.338291l21.722112 21.722112-528.390374 528.390374-21.722112-21.722112 528.390374-528.390374Z" p-id="4347"></path><path d="M464.384 647.424c-3.84 0-7.936-1.536-10.752-4.608-5.888-5.888-5.888-15.616 0-21.76l376.32-376.32c5.888-5.888 15.616-5.888 21.76 0 5.888 5.888 5.888 15.616 0 21.76l-376.32 376.32C472.32 645.888 468.48 647.424 464.384 647.424z" p-id="4348"></path><path d="M312.32 799.488c-3.84 0-7.936-1.536-10.752-4.608-5.888-5.888-5.888-15.616 0-21.76l91.136-91.136c5.888-5.888 15.616-5.888 21.76 0s5.888 15.616 0 21.76l-91.136 91.136C320.256 797.952 316.16 799.488 312.32 799.488z" p-id="4349"></path></svg>