<?xml version="1.0" standalone="no"?><!DOCTYPE svg PUBLIC "-//W3C//DTD SVG 1.1//EN" "http://www.w3.org/Graphics/SVG/1.1/DTD/svg11.dtd"><svg t="1505107512595" class="icon" style="" viewBox="0 0 1024 1024" version="1.1" xmlns="http://www.w3.org/2000/svg" p-id="4242" xmlns:xlink="http://www.w3.org/1999/xlink" width="16" height="16"><defs><style type="text/css"></style></defs><path d="M902.73792 185.449472c0-41.255936-33.972224-75.008-75.480064-75.008L140.884992 110.441472c-41.455616 0-75.387904 33.752064-75.387904 75.008l0 83.800064 837.239808 0L902.736896 185.449472zM736.274432 441.734144c63.798272 0 122.05056 23.703552 166.463488 62.7712L902.73792 381.756416 65.497088 381.756416l0 315.440128c0 41.25184 33.936384 75.024384 75.387904 75.024384L496.540672 772.220928c-8.051712-24.65792-12.423168-50.981888-12.423168-78.329856C484.117504 554.628096 597.01248 441.734144 736.274432 441.734144zM941.400064 608.700416c-11.684864-26.615808-27.80672-50.127872-47.904768-70.112256-20.268032-19.968-43.780096-35.933184-70.844416-47.608832-26.924032-11.691008-55.461888-17.449984-85.788672-17.449984-31.053824 0-60.044288 5.757952-86.964224 17.449984-26.907648 11.681792-50.57536 27.640832-70.684672 47.608832-20.261888 19.984384-36.238336 43.496448-48.069632 70.112256-11.841536 26.758144-17.746944 55.159808-17.746944 85.189632 0 30.753792 5.911552 59.456512 17.746944 86.074368 11.83232 26.76224 27.807744 50.127872 48.069632 70.250496 20.110336 19.95776 43.77088 35.628032 70.684672 47.020032 26.919936 11.415552 55.9104 17.017856 86.964224 17.017856 30.326784 0 58.86464-5.602304 85.788672-17.017856 27.06432-11.392 50.576384-27.062272 70.844416-47.020032 20.098048-20.1216 36.219904-43.488256 47.904768-70.250496 11.84256-26.617856 17.753088-55.319552 17.753088-86.074368C959.153152 663.860224 953.243648 635.45856 941.400064 608.700416zM861.599744 797.34272c-13.036544-35.785728-47.364096-61.34784-87.66464-61.34784l0 93.523968c0 12.928-10.483712 23.405568-23.411712 23.405568-8.082432 0-15.210496-4.098048-19.412992-10.334208L600.142848 711.629824c-5.202944-4.297728-8.522752-10.793984-8.522752-18.066432 0-6.509568 2.665472-12.39552 6.94784-16.64l-0.028672-0.027648 136.240128-136.23808 0.154624 0.149504c4.139008-3.703808 9.603072-5.957632 15.589376-5.957632 12.928 0 23.411712 10.487808 23.411712 23.411712l0 70.739968c59.090944 0 106.99776 47.899648 106.99776 106.991616C880.925696 758.81984 873.775104 779.974656 861.599744 797.34272z" p-id="4243" fill="#ffffff"></path></svg>