<?xml version="1.0" standalone="no"?><!DOCTYPE svg PUBLIC "-//W3C//DTD SVG 1.1//EN" "http://www.w3.org/Graphics/SVG/1.1/DTD/svg11.dtd"><svg t="1505454364354" class="icon" style="" viewBox="0 0 1024 1024" version="1.1" xmlns="http://www.w3.org/2000/svg" p-id="5718" xmlns:xlink="http://www.w3.org/1999/xlink" width="16" height="16"><defs><style type="text/css"></style></defs><path d="M542.117647 499.952941V120.470588c0-18.070588-12.047059-30.117647-30.117647-30.117647S481.882353 102.4 481.882353 120.470588v409.6l246.964706 192.752941c6.023529 6.023529 12.047059 6.023529 18.070588 6.02353 6.023529 0 18.070588-6.023529 24.094118-12.047059 12.047059-12.047059 6.023529-30.117647-6.02353-42.164706L542.117647 499.952941zM512 0C228.894118 0 0 228.894118 0 512S228.894118 1024 512 1024 1024 795.105882 1024 512 795.105882 0 512 0z m0 963.764706C265.035294 963.764706 60.235294 758.964706 60.235294 512S265.035294 60.235294 512 60.235294 963.764706 265.035294 963.764706 512 758.964706 963.764706 512 963.764706z" p-id="5719" fill="#dddddd"></path></svg>
