<?xml version="1.0" standalone="no"?><!DOCTYPE svg PUBLIC "-//W3C//DTD SVG 1.1//EN" "http://www.w3.org/Graphics/SVG/1.1/DTD/svg11.dtd"><svg t="1500341049375" class="icon" style="" viewBox="0 0 1024 1024" version="1.1" xmlns="http://www.w3.org/2000/svg" p-id="1853" xmlns:xlink="http://www.w3.org/1999/xlink" width="200" height="200"><defs><style type="text/css"></style></defs><path d="M512.447 242.335c149.089 0 269.984 120.704 269.984 269.6S661.536 781.533 512.447 781.533c-149.087 0-269.982-120.736-269.982-269.598 0-148.864 120.895-269.6 269.982-269.6zM480 95.966C480 78.303 494.367 64 512 64c17.663 0 32 14.303 32 31.966v64.065c0 17.663-14.367 31.968-32 31.968-17.663 0-32-14.305-32-31.968V95.966z m0 767.997c0-17.663 14.368-31.966 32-31.966 17.663 0 32 14.303 32 31.966v64.065c0 17.663-14.367 31.968-32 31.968-17.663 0-32-14.305-32-31.968v-64.065z m448.031-383.966c17.663 0 31.968 14.368 31.968 32 0 17.663-14.305 32-31.968 32h-64.065c-17.663 0-31.966-14.367-31.966-32 0-17.663 14.303-32 31.966-32h64.065z m-767.997 0c17.663 0 31.966 14.368 31.966 32 0 17.663-14.303 32-31.966 32H95.969c-17.663 0-31.968-14.367-31.968-32 0-17.663 14.305-32 31.968-32h64.065z m623.517-284.798c12.48-12.48 32.767-12.448 45.247 0.032 12.48 12.48 12.512 32.735 0.032 45.247l-45.312 45.313c-12.48 12.48-32.767 12.446-45.247-0.032-12.48-12.48-12.512-32.737-0.032-45.247l45.312-45.313z m-543.07 543.038c12.48-12.48 32.767-12.448 45.247 0.032 12.48 12.48 12.512 32.735 0.032 45.247l-45.312 45.312c-12.48 12.48-32.767 12.448-45.247-0.032-12.48-12.48-12.512-32.735-0.032-45.247l45.312-45.312z m588.318 45.312c12.48 12.48 12.448 32.767-0.032 45.247s-32.735 12.512-45.247 0.032l-45.313-45.312c-12.478-12.48-12.446-32.767 0.034-45.247 12.478-12.48 32.735-12.512 45.247-0.032l45.311 45.312zM285.76 240.478c12.48 12.48 12.448 32.767-0.032 45.247-12.48 12.48-32.735 12.512-45.247 0.034l-45.312-45.313c-12.48-12.48-12.448-32.767 0.032-45.247 12.48-12.48 32.737-12.512 45.247-0.032l45.312 45.311z" p-id="1854"></path></svg>