<?xml version="1.0" standalone="no"?><!DOCTYPE svg PUBLIC "-//W3C//DTD SVG 1.1//EN" "http://www.w3.org/Graphics/SVG/1.1/DTD/svg11.dtd"><svg t="1505113012239" class="icon" style="" viewBox="0 0 1024 1024" version="1.1" xmlns="http://www.w3.org/2000/svg" p-id="10454" xmlns:xlink="http://www.w3.org/1999/xlink" width="32" height="32"><defs><style type="text/css"></style></defs><path d="M498.778884 933.317675l-322.183863 0c-62.562894 0-85.86153-23.422456-85.86153-85.86153L90.733491 177.973414c0-65.574484 21.252023-85.86153 85.86153-85.86153l669.482731 0c69.543889 0 85.86153 20.969591 85.86153 85.86153l0 323.43025c0 7.369851 5.974062 13.343913 13.344936 13.343913l0 0c7.369851 0 13.343913-5.974062 13.343913-13.343913L958.62813 151.284565c0-47.223534-38.637995-85.86153-85.86153-85.86153l-722.859405 0c-47.224558 0-85.862553 38.637995-85.862553 85.86153l0 722.859405c0 47.224558 38.637995 85.86153 85.86153 85.86153l348.872712 0c7.369851 0 13.343913-5.974062 13.343913-13.343913l0 0C512.122797 939.291736 506.147712 933.317675 498.778884 933.317675z" p-id="10455"></path><path d="M437.548334 331.736427c6.753821 0 12.279674-5.525853 12.279674-12.279674l0-1.547239c0-6.753821-5.525853-12.279674-12.279674-12.279674l-87.269599 0 91.852988-91.852988c4.77577-4.77577 4.77577-12.590759 0-17.366529l-1.093914-1.093914c-4.77577-4.77577-12.590759-4.77577-17.366529 0l-103.349833 103.349833c-0.610914 0.610914-1.140986 1.272993-1.596358 1.970888-0.454348-0.697895-0.985444-1.359974-1.596358-1.970888l-103.349833-103.349833c-4.77577-4.77577-12.590759-4.77577-17.365506 0l-1.093914 1.093914c-4.77577 4.77577-4.77577 12.590759 0 17.366529l91.852988 91.852988-82.680071 0c-6.753821 0-12.279674 5.525853-12.279674 12.279674l0 1.547239c0 6.753821 5.525853 12.279674 12.279674 12.279674l103.474676 0 0 75.210959-103.474676 0c-6.753821 0-12.279674 5.525853-12.279674 12.279674l0 1.547239c0 6.753821 5.525853 12.279674 12.279674 12.279674l103.474676 0 0 64.390519c0 6.753821 5.525853 12.279674 12.279674 12.279674l1.547239 0c6.753821 0 12.279674-5.525853 12.279674-12.279674l0-64.390519 103.474676 0c6.753821 0 12.279674-5.525853 12.279674-12.279674l0-1.547239c0-6.753821-5.525853-12.279674-12.279674-12.279674l-103.474676 0 0-75.210959L437.548334 331.736427z" p-id="10456"></path><path d="M703.087083 447.768093c-141.130298 0-255.540024 114.41075-255.540024 255.540024 0 141.129274 114.41075 255.540024 255.540024 255.540024 141.132344 0 255.540024-114.409726 255.540024-255.540024C958.627107 562.178843 844.220451 447.768093 703.087083 447.768093zM703.087083 935.841148c-128.423905 0-232.533031-104.110149-232.533031-232.533031 0-128.422881 104.110149-232.533031 232.533031-232.533031 128.425951 0 232.533031 104.110149 232.533031 232.533031C935.620114 831.732022 831.514057 935.841148 703.087083 935.841148z" p-id="10457"></path><path d="M861.900112 582.511937l-1.093914-1.093914c-4.77577-4.77577-12.590759-4.77577-17.365506 0l-229.737358 247.480464-77.573773-77.573773c-4.77577-4.77577-12.590759-4.77577-17.365506 0l-1.093914 1.093914c-4.77577 4.77577-4.77577 12.590759 0 17.366529l85.573981 85.573981c1.312902 1.312902 2.858094 2.251274 4.503571 2.841721 4.777817 3.297093 11.416004 2.833535 15.659655-1.409093l238.493789-256.913301C866.675882 595.102696 866.675882 587.287707 861.900112 582.511937z" p-id="10458"></path></svg>