<?xml version="1.0" standalone="no"?><!DOCTYPE svg PUBLIC "-//W3C//DTD SVG 1.1//EN" "http://www.w3.org/Graphics/SVG/1.1/DTD/svg11.dtd"><svg t="1505270429618" class="icon" style="" viewBox="0 0 1024 1024" version="1.1" xmlns="http://www.w3.org/2000/svg" p-id="2356" xmlns:xlink="http://www.w3.org/1999/xlink" width="16" height="16"><defs><style type="text/css"></style></defs><path d="M512.398222 1024C122.140444 927.516444 64.455111 719.872 56.263111 650.467556 56.263111 650.467556 56.263111 83.683556 56.263111 83.683556 122.766222 83.683556 352.028444 0 512.398222 0 672.824889 0 902.030222 83.683556 967.736889 83.683556 967.736889 83.683556 967.736889 650.467556 967.736889 650.467556 959.715556 719.872 902.656 927.516444 512.398222 1024ZM912.327111 135.68C854.698667 135.68 653.312 62.122667 512.341333 62.122667 371.427556 62.122667 170.040889 135.68 111.559111 135.68 111.559111 135.68 111.559111 633.685333 111.559111 633.685333 118.727111 694.670222 169.415111 877.056 512.341333 961.820444 855.210667 877.056 905.329778 694.670222 912.327111 633.685333 912.327111 633.685333 912.327111 135.68 912.327111 135.68ZM394.581333 266.24C394.581333 266.24 540.615111 266.24 540.615111 266.24 540.615111 266.24 540.615111 222.435556 540.615111 222.435556 540.615111 222.435556 620.487111 222.435556 620.487111 222.435556 620.487111 222.435556 620.487111 266.24 620.487111 266.24 620.487111 266.24 768.796444 266.24 768.796444 266.24 768.796444 266.24 768.796444 314.709333 768.796444 314.709333 768.796444 314.709333 394.581333 314.709333 394.581333 314.709333 394.581333 314.709333 394.581333 266.24 394.581333 266.24ZM358.058667 750.705778C358.058667 750.705778 291.896889 750.705778 291.896889 750.705778 291.896889 750.705778 291.896889 409.258667 291.896889 409.258667 276.650667 418.474667 258.389333 426.951111 237.112889 434.631111 237.112889 434.631111 237.112889 388.551111 237.112889 388.551111 285.809778 353.109333 316.188444 297.813333 328.362667 222.435556 328.362667 222.435556 399.075556 222.435556 399.075556 222.435556 386.901333 274.716444 373.248 313.173333 358.058667 337.749333 358.058667 337.749333 358.058667 750.705778 358.058667 750.705778ZM741.376 406.983111C741.376 406.983111 417.393778 406.983111 417.393778 406.983111 417.393778 406.983111 417.393778 360.846222 417.393778 360.846222 417.393778 360.846222 741.376 360.846222 741.376 360.846222 741.376 360.846222 741.376 406.983111 741.376 406.983111ZM741.376 499.2C741.376 499.2 417.393778 499.2 417.393778 499.2 417.393778 499.2 417.393778 453.12 417.393778 453.12 417.393778 453.12 741.376 453.12 741.376 453.12 741.376 453.12 741.376 499.2 741.376 499.2ZM741.376 660.764444C742.855111 712.988444 717.824 738.360889 666.055111 736.824889 666.055111 736.824889 417.393778 736.824889 417.393778 736.824889 417.393778 736.824889 417.393778 550.001778 417.393778 550.001778 417.393778 550.001778 741.376 550.001778 741.376 550.001778 741.376 550.001778 741.376 660.764444 741.376 660.764444ZM672.995556 598.414222C672.995556 598.414222 485.831111 598.414222 485.831111 598.414222 485.831111 598.414222 485.831111 693.077333 485.831111 693.077333 485.831111 693.077333 643.299556 693.077333 643.299556 693.077333 663.04 693.077333 672.995556 682.268444 672.995556 660.764444 672.995556 660.764444 672.995556 598.414222 672.995556 598.414222Z" p-id="2357" fill="#04BE02"></path></svg>